<?xml version="1.0" encoding="utf-8"?>
<!-- Generator: Adobe Illustrator 27.0.0, SVG Export Plug-In . SVG Version: 6.00 Build 0)  -->
<svg version="1.1" id="Layer_1" xmlns="http://www.w3.org/2000/svg" xmlns:xlink="http://www.w3.org/1999/xlink" x="0px" y="0px"
	 viewBox="0 0 511.5 511.5" style="enable-background:new 0 0 511.5 511.5;" xml:space="preserve">
<style type="text/css">
	
		.st0{clip-path:url(#SVGID_00000127038073391500298550000014582786678351329207_);fill:url(#SVGID_00000085946586434474818660000018348554172241041798_);}
	.st1{fill:none;stroke:#000000;stroke-miterlimit:10;}
	.st2{fill:#F0227C;}
	.st3{fill:#FFFFFF;}
	
		.st4{clip-path:url(#SVGID_00000131328608505456997960000010782453292899433149_);fill:url(#SVGID_00000022524442985480032270000001310408494508210859_);}
</style>
<g>
	<path d="M51.4,511.5h408.7c28.4,0,51.4-23,51.4-51.4V51.4c0-28.4-23-51.4-51.4-51.4H51.4C23,0,0,23,0,51.4v408.7
		C0,488.5,23,511.5,51.4,511.5z"/>
	<g>
		<defs>
			<path id="SVGID_00000142888243946547299170000002473636329960310448_" d="M51.4,511.5h408.7c28.4,0,51.4-23,51.4-51.4V51.4
				c0-28.4-23-51.4-51.4-51.4H51.4C23,0,0,23,0,51.4v408.7C0,488.5,23,511.5,51.4,511.5z"/>
		</defs>
		<clipPath id="SVGID_00000180349631520809659880000008512306310358186936_">
			<use xlink:href="#SVGID_00000142888243946547299170000002473636329960310448_"  style="overflow:visible;"/>
		</clipPath>
		
			<radialGradient id="SVGID_00000061440720437602696620000009867260657099077030_" cx="0" cy="560.4647" r="957.7614" gradientUnits="userSpaceOnUse">
			<stop  offset="0" style="stop-color:#0C103F"/>
			<stop  offset="1" style="stop-color:#04060A;stop-opacity:0"/>
		</radialGradient>
		
			<circle style="clip-path:url(#SVGID_00000180349631520809659880000008512306310358186936_);fill:url(#SVGID_00000061440720437602696620000009867260657099077030_);" cx="0" cy="560.5" r="957.8"/>
	</g>
	<g>
		<path class="st2" d="M204.9,120.1h-89.5v231.8h89.5c0,0,116.5,3.5,116.5-114.9v-2C321.4,116.5,204.9,120.1,204.9,120.1z
			 M274.1,236.6c0,74.7-63.5,72.5-63.5,72.5h-48.8V162.9h48.8c0,0,63.5-2.2,63.5,72.5V236.6z"/>
		<circle class="st2" cx="362.1" cy="317.2" r="34"/>
		<circle class="st3" cx="327.9" cy="351.1" r="40.3"/>
	</g>
</g>
</svg>
